<svg xmlns="http://www.w3.org/2000/svg" version="1.1" xmlns:xlink="http://www.w3.org/1999/xlink" width="1000" height="1000"><metadata><rdf:RDF xmlns:rdf="http://www.w3.org/1999/02/22-rdf-syntax-ns#" xmlns:dc="http://purl.org/dc/elements/1.1/"><rdf:Description><dc:creator>RealFaviconGenerator</dc:creator><dc:source>https://realfavicongenerator.net</dc:source></rdf:Description></rdf:RDF></metadata><g clip-path="url(#SvgjsClipPath1202)"><rect width="1000" height="1000" fill="#000000"></rect><g transform="matrix(33.333333333333336,0,0,33.333333333333336,100,100)"><svg xmlns="http://www.w3.org/2000/svg" viewBox="0 0 24 24" fill="#ffffff" stroke="none" stroke-width="0" width="24" height="24"><path d="m12.01,1C5.92,1,1,5.96,1,12.09c0,4.9,3.15,9.05,7.53,10.52.55.11.75-.24.75-.53,0-.26-.02-1.14-.02-2.06-3.06.66-3.7-1.32-3.7-1.32-.49-1.29-1.22-1.62-1.22-1.62-1-.68.07-.68.07-.68,1.11.07,1.7,1.14,1.7,1.14.98,1.69,2.57,1.21,3.21.92.09-.72.38-1.21.69-1.49-2.44-.26-5.01-1.21-5.01-5.47,0-1.21.44-2.2,1.13-2.97-.11-.28-.49-1.41.11-2.94,0,0,.93-.29,3.03,1.14.9-.24,1.82-.37,2.75-.37.93,0,1.88.13,2.75.37,2.1-1.43,3.03-1.14,3.03-1.14.6,1.52.22,2.66.11,2.94.71.77,1.13,1.76,1.13,2.97,0,4.26-2.57,5.2-5.03,5.47.4.35.75,1.01.75,2.06,0,1.49-.02,2.68-.02,3.05,0,.29.2.64.75.53,4.37-1.47,7.53-5.62,7.53-10.52.02-6.13-4.92-11.09-10.99-11.09Z"></path></svg></g></g><defs><clipPath id="SvgjsClipPath1202"><rect width="1000" height="1000" x="0" y="0" rx="350" ry="350"></rect></clipPath></defs></svg>